# Blender 5.0.1
# www.blender.org
o Sphere
v 0.000000 1.000000 0.000000
v 0.000000 0.831470 -0.555570
v 0.000000 0.555570 -0.831470
v 0.000000 0.195090 -0.980785
v 0.000000 -0.195090 -0.980785
v 0.074658 0.980785 -0.180240
v 0.212608 0.831470 -0.513280
v 0.318190 0.555570 -0.768178
v 0.375330 0.195090 -0.906127
v 0.375330 -0.195090 -0.906127
v 0.137950 0.980785 -0.137950
v 0.392847 0.831470 -0.392847
v 0.587938 0.555570 -0.587938
v 0.693520 0.195090 -0.693520
v 0.693520 -0.195090 -0.693520
v 0.180240 0.980785 -0.074658
v 0.513280 0.831470 -0.212607
v 0.768178 0.555570 -0.318190
v 0.906127 0.195090 -0.375330
v 0.906127 -0.195090 -0.375330
v 0.195090 0.980785 0.000000
v 0.555570 0.831470 0.000000
v 0.831469 0.555570 0.000000
v 0.980785 0.195090 0.000000
v 0.980785 -0.195090 0.000000
v 0.180240 0.980785 0.074658
v 0.513280 0.831470 0.212608
v 0.768178 0.555570 0.318190
v 0.906127 0.195090 0.375330
v 0.906127 -0.195090 0.375330
v 0.137950 0.980785 0.137950
v 0.392847 0.831470 0.392847
v 0.587938 0.555570 0.587938
v 0.693520 0.195090 0.693520
v 0.693520 -0.195090 0.693520
v 0.074658 0.980785 0.180240
v 0.212607 0.831470 0.513280
v 0.318189 0.555570 0.768178
v 0.375330 0.195090 0.906127
v 0.375330 -0.195090 0.906127
v -0.000000 0.980785 0.195090
v -0.000000 0.831470 0.555570
v -0.000000 0.555570 0.831469
v -0.000000 0.195090 0.980785
v -0.000000 -0.195090 0.980785
v -0.074658 0.980785 0.180240
v -0.212608 0.831470 0.513280
v -0.318190 0.555570 0.768177
v -0.375330 0.195090 0.906127
v -0.375330 -0.195090 0.906127
v -0.137950 0.980785 0.137950
v -0.392847 0.831470 0.392847
v -0.587938 0.555570 0.587937
v -0.693520 0.195090 0.693520
v -0.693520 -0.195090 0.693520
v -0.180240 0.980785 0.074658
v -0.513280 0.831470 0.212607
v -0.768177 0.555570 0.318189
v -0.906127 0.195090 0.375330
v -0.906127 -0.195090 0.375330
v -0.195090 0.980785 -0.000000
v -0.555570 0.831470 -0.000000
v -0.831469 0.555570 -0.000000
v -0.980785 0.195090 -0.000000
v -0.980785 -0.195090 -0.000000
v -0.180240 0.980785 -0.074658
v -0.513279 0.831470 -0.212607
v -0.768177 0.555570 -0.318190
v -0.906127 0.195090 -0.375330
v -0.906127 -0.195090 -0.375330
v -0.137950 0.980785 -0.137950
v -0.392847 0.831470 -0.392847
v -0.587937 0.555570 -0.587938
v -0.693519 0.195090 -0.693520
v -0.693519 -0.195090 -0.693520
v -0.074658 0.980785 -0.180240
v -0.212607 0.831470 -0.513279
v -0.318189 0.555570 -0.768177
v -0.375330 0.195090 -0.906127
v -0.375330 -0.195090 -0.906127
v 0.000000 0.980785 -0.195090
vn -0.0000 1.0000 -0.0000
vn -0.0000 0.8203 -0.5719
vn -0.0000 0.5446 -0.8387
vn -0.0000 0.1906 -0.9817
vn -0.0000 -0.0000 -1.0000
vn 0.0995 0.9656 -0.2403
vn 0.2189 0.8203 -0.5284
vn 0.3209 0.5446 -0.7748
vn 0.3757 0.1906 -0.9069
vn 0.3827 -0.0000 -0.9239
vn 0.1839 0.9656 -0.1839
vn 0.4044 0.8203 -0.4044
vn 0.5930 0.5446 -0.5930
vn 0.6941 0.1906 -0.6941
vn 0.7071 -0.0000 -0.7071
vn 0.2403 0.9656 -0.0995
vn 0.5284 0.8203 -0.2189
vn 0.7748 0.5446 -0.3209
vn 0.9069 0.1906 -0.3757
vn 0.9239 -0.0000 -0.3827
vn 0.2601 0.9656 -0.0000
vn 0.5719 0.8203 -0.0000
vn 0.8387 0.5446 -0.0000
vn 0.9817 0.1906 -0.0000
vn 1.0000 -0.0000 -0.0000
vn 0.2403 0.9656 0.0995
vn 0.5284 0.8203 0.2189
vn 0.7748 0.5446 0.3209
vn 0.9069 0.1906 0.3757
vn 0.9239 -0.0000 0.3827
vn 0.1839 0.9656 0.1839
vn 0.4044 0.8203 0.4044
vn 0.5930 0.5446 0.5930
vn 0.6941 0.1906 0.6941
vn 0.7071 -0.0000 0.7071
vn 0.0995 0.9656 0.2403
vn 0.2189 0.8203 0.5284
vn 0.3209 0.5446 0.7748
vn 0.3757 0.1906 0.9069
vn 0.3827 -0.0000 0.9239
vn -0.0000 0.9656 0.2601
vn -0.0000 0.8203 0.5719
vn -0.0000 0.5446 0.8387
vn -0.0000 0.1906 0.9817
vn -0.0000 -0.0000 1.0000
vn -0.0995 0.9656 0.2403
vn -0.2189 0.8203 0.5284
vn -0.3209 0.5446 0.7748
vn -0.3757 0.1906 0.9069
vn -0.3827 -0.0000 0.9239
vn -0.1839 0.9656 0.1839
vn -0.4044 0.8203 0.4044
vn -0.5930 0.5446 0.5930
vn -0.6941 0.1906 0.6941
vn -0.7071 -0.0000 0.7071
vn -0.2403 0.9656 0.0995
vn -0.5284 0.8203 0.2189
vn -0.7748 0.5446 0.3209
vn -0.9069 0.1906 0.3757
vn -0.9239 -0.0000 0.3827
vn -0.2601 0.9656 -0.0000
vn -0.5719 0.8203 -0.0000
vn -0.8387 0.5446 -0.0000
vn -0.9817 0.1906 -0.0000
vn -1.0000 -0.0000 -0.0000
vn -0.2403 0.9656 -0.0995
vn -0.5284 0.8203 -0.2189
vn -0.7748 0.5446 -0.3209
vn -0.9069 0.1906 -0.3757
vn -0.9239 -0.0000 -0.3827
vn -0.1839 0.9656 -0.1839
vn -0.4044 0.8203 -0.4044
vn -0.5930 0.5446 -0.5930
vn -0.6941 0.1906 -0.6941
vn -0.7071 -0.0000 -0.7071
vn -0.0995 0.9656 -0.2403
vn -0.2189 0.8203 -0.5284
vn -0.3209 0.5446 -0.7748
vn -0.3757 0.1906 -0.9069
vn -0.3827 -0.0000 -0.9239
vn -0.0000 0.9656 -0.2601
vt 0.687500 0.437500
vt 0.750000 0.437500
vt 0.750000 0.562500
vt 0.687500 0.562500
vt 0.562500 0.812500
vt 0.625000 0.812500
vt 0.625000 0.937500
vt 0.562500 0.937500
vt 0.562500 0.437500
vt 0.625000 0.437500
vt 0.625000 0.562500
vt 0.562500 0.562500
vt 0.812500 0.562500
vt 0.812500 0.437500
vt 0.640625 1.000000
vt 0.687500 0.937500
vt 0.750000 0.937500
vt 0.687500 0.812500
vt 0.750000 0.812500
vt 0.625000 0.687500
vt 0.687500 0.687500
vt 0.562500 0.687500
vt 0.500000 0.437500
vt 0.500000 0.562500
vt 0.578125 1.000000
vt 0.500000 0.687500
vt 0.500000 0.812500
vt 0.500000 0.937500
vt 0.437500 0.437500
vt 0.437500 0.562500
vt 0.437500 0.687500
vt 0.515625 1.000000
vt 0.437500 0.812500
vt 0.437500 0.937500
vt 0.375000 0.437500
vt 0.375000 0.562500
vt 0.375000 0.687500
vt 0.453125 1.000000
vt 0.375000 0.812500
vt 0.375000 0.937500
vt 0.312500 0.437500
vt 0.312500 0.562500
vt 0.390625 1.000000
vt 0.312500 0.812500
vt 0.312500 0.937500
vt 0.312500 0.687500
vt 0.250000 0.437500
vt 0.250000 0.562500
vt 0.328125 1.000000
vt 0.250000 0.812500
vt 0.250000 0.937500
vt 0.250000 0.687500
vt 0.187500 0.437500
vt 0.187500 0.562500
vt 0.187500 0.812500
vt 0.187500 0.937500
vt 0.187500 0.687500
vt 0.265625 1.000000
vt 0.125000 0.437500
vt 0.125000 0.562500
vt 0.125000 0.812500
vt 0.125000 0.937500
vt 0.125000 0.687500
vt 0.203125 1.000000
vt 0.062500 0.437500
vt 0.062500 0.562500
vt 0.062500 0.812500
vt 0.062500 0.937500
vt 0.062500 0.687500
vt 0.140625 1.000000
vt 0.000000 0.437500
vt 1.000000 0.562500
vt 0.000000 0.687500
vt 1.000000 0.812500
vt 0.000000 0.562500
vt 1.000000 0.687500
vt 0.000000 0.812500
vt 1.000000 0.937500
vt 0.078125 1.000000
vt 0.937500 0.437500
vt 0.937500 0.562500
vt 0.937500 0.687500
vt 0.937500 0.812500
vt 0.937500 0.937500
vt 0.015625 1.000000
vt 0.000000 0.937500
vt 0.875000 0.437500
vt 0.875000 0.562500
vt 0.875000 0.812500
vt 0.875000 0.937500
vt 0.875000 0.687500
vt 0.953125 1.000000
vt 0.812500 0.812500
vt 0.812500 0.937500
vt 0.890625 1.000000
vt 0.812500 0.687500
vt 0.828125 1.000000
vt 0.750000 0.687500
vt 0.765625 1.000000
vt 0.703125 1.000000
s 1
f 10/1/10 5/2/5 4/3/4 9/4/9
f 17/5/17 12/6/12 11/7/11 16/8/16
f 20/9/20 15/10/15 14/11/14 19/12/19
f 79/13/79 4/3/4 5/2/5 80/14/80
f 1/15/1 11/7/11 6/16/6
f 81/17/81 6/16/6 7/18/7 2/19/2
f 15/10/15 10/1/10 9/4/9 14/11/14
f 13/20/13 8/21/8 7/18/7 12/6/12
f 18/22/18 13/20/13 12/6/12 17/5/17
f 25/23/25 20/9/20 19/12/19 24/24/24
f 1/25/1 16/8/16 11/7/11
f 24/24/24 19/12/19 18/22/18 23/26/23
f 22/27/22 17/5/17 16/8/16 21/28/21
f 23/26/23 18/22/18 17/5/17 22/27/22
f 30/29/30 25/23/25 24/24/24 29/30/29
f 29/30/29 24/24/24 23/26/23 28/31/28
f 1/32/1 21/28/21 16/8/16
f 27/33/27 22/27/22 21/28/21 26/34/26
f 28/31/28 23/26/23 22/27/22 27/33/27
f 35/35/35 30/29/30 29/30/29 34/36/34
f 34/36/34 29/30/29 28/31/28 33/37/33
f 1/38/1 26/34/26 21/28/21
f 32/39/32 27/33/27 26/34/26 31/40/31
f 33/37/33 28/31/28 27/33/27 32/39/32
f 40/41/40 35/35/35 34/36/34 39/42/39
f 1/43/1 31/40/31 26/34/26
f 37/44/37 32/39/32 31/40/31 36/45/36
f 39/42/39 34/36/34 33/37/33 38/46/38
f 38/46/38 33/37/33 32/39/32 37/44/37
f 45/47/45 40/41/40 39/42/39 44/48/44
f 1/49/1 36/45/36 31/40/31
f 42/50/42 37/44/37 36/45/36 41/51/41
f 44/48/44 39/42/39 38/46/38 43/52/43
f 43/52/43 38/46/38 37/44/37 42/50/42
f 50/53/50 45/47/45 44/48/44 49/54/49
f 47/55/47 42/50/42 41/51/41 46/56/46
f 49/54/49 44/48/44 43/52/43 48/57/48
f 1/58/1 41/51/41 36/45/36
f 48/57/48 43/52/43 42/50/42 47/55/47
f 55/59/55 50/53/50 49/54/49 54/60/54
f 52/61/52 47/55/47 46/56/46 51/62/51
f 54/60/54 49/54/49 48/57/48 53/63/53
f 1/64/1 46/56/46 41/51/41
f 53/63/53 48/57/48 47/55/47 52/61/52
f 60/65/60 55/59/55 54/60/54 59/66/59
f 57/67/57 52/61/52 51/62/51 56/68/56
f 59/66/59 54/60/54 53/63/53 58/69/58
f 1/70/1 51/62/51 46/56/46
f 58/69/58 53/63/53 52/61/52 57/67/57
f 65/71/65 60/65/60 59/66/59 64/72/64
f 63/73/63 58/69/58 57/67/57 62/74/62
f 64/75/64 59/66/59 58/69/58 63/76/63
f 62/77/62 57/67/57 56/68/56 61/78/61
f 1/79/1 56/68/56 51/62/51
f 70/80/70 65/71/65 64/72/64 69/81/69
f 69/81/69 64/75/64 63/76/63 68/82/68
f 67/83/67 62/77/62 61/78/61 66/84/66
f 1/85/1 61/86/61 56/68/56
f 75/87/75 70/80/70 69/81/69 74/88/74
f 68/82/68 63/73/63 62/74/62 67/83/67
f 72/89/72 67/83/67 66/84/66 71/90/71
f 74/88/74 69/81/69 68/82/68 73/91/73
f 1/92/1 66/84/66 61/78/61
f 73/91/73 68/82/68 67/83/67 72/89/72
f 80/14/80 75/87/75 74/88/74 79/13/79
f 77/93/77 72/89/72 71/90/71 76/94/76
f 1/95/1 71/90/71 66/84/66
f 79/13/79 74/88/74 73/91/73 78/96/78
f 78/96/78 73/91/73 72/89/72 77/93/77
f 1/97/1 76/94/76 71/90/71
f 79/13/79 78/96/78 3/98/3 4/3/4
f 2/19/2 77/93/77 76/94/76 81/17/81
f 78/96/78 77/93/77 2/19/2 3/98/3
f 1/99/1 81/17/81 76/94/76
f 14/11/14 9/4/9 8/21/8 13/20/13
f 4/3/4 3/98/3 8/21/8 9/4/9
f 19/12/19 14/11/14 13/20/13 18/22/18
f 1/100/1 6/16/6 81/17/81
f 12/6/12 7/18/7 6/16/6 11/7/11
f 3/98/3 2/19/2 7/18/7 8/21/8
o Cylinder.001
v -0.000000 0.746697 -0.234269
v -0.181265 0.693606 -0.287360
v -0.256348 0.565432 -0.415534
v -0.181265 0.437258 -0.543708
v -0.000000 0.384167 -0.596799
v 0.181265 0.437258 -0.543708
v 0.256348 0.565432 -0.415534
v 0.181265 0.693606 -0.287360
v -0.140449 1.089735 -0.638692
v -0.250626 0.973825 -0.753973
v -0.212196 0.838268 -0.889531
v -0.050582 0.761911 -0.965797
v 0.050582 0.761911 -0.965797
v 0.212196 0.838268 -0.889531
v 0.250626 0.973825 -0.753973
v 0.140449 1.089735 -0.638692
v -0.072524 1.121262 -0.841290
v -0.115721 1.136967 -0.751398
v -0.124527 1.066230 -0.896322
v -0.202531 1.045568 -0.843465
v -0.105569 0.998836 -0.963715
v -0.171657 0.935817 -0.952923
v -0.022031 0.959367 -1.003184
v -0.038625 0.872933 -1.015732
v 0.022031 0.959367 -1.003184
v 0.038625 0.872933 -1.015732
v 0.105568 0.998836 -0.963715
v 0.171657 0.935817 -0.952923
v 0.124526 1.066230 -0.896322
v 0.202531 1.045568 -0.843465
v 0.072524 1.121262 -0.841290
v 0.115721 1.136967 -0.751398
vn -0.0000 0.7326 0.6807
vn -0.7229 0.4878 0.4894
vn -0.9997 -0.0173 -0.0143
vn -0.6913 -0.5125 -0.5094
vn -0.0000 -0.7184 -0.6956
vn 0.6913 -0.5125 -0.5094
vn 0.9997 -0.0173 -0.0143
vn 0.7229 0.4878 0.4894
vn -0.4897 0.6952 0.5262
vn -0.9706 0.2304 0.0702
vn -0.8361 -0.3011 -0.4585
vn -0.2850 -0.5968 -0.7501
vn 0.2850 -0.5968 -0.7501
vn 0.8361 -0.3011 -0.4585
vn 0.9706 0.2304 0.0702
vn 0.4897 0.6952 0.5262
vn -0.1672 0.8900 -0.4243
vn -0.3974 0.9056 0.1485
vn -0.3680 0.6993 -0.6128
vn -0.8385 0.4793 -0.2593
vn -0.3222 0.4866 -0.8121
vn -0.7119 0.0105 -0.7022
vn -0.1205 0.3835 -0.9157
vn -0.2539 -0.2350 -0.9382
vn 0.1205 0.3835 -0.9157
vn 0.2539 -0.2350 -0.9382
vn 0.3222 0.4866 -0.8121
vn 0.7119 0.0105 -0.7022
vn 0.3680 0.6993 -0.6128
vn 0.8385 0.4793 -0.2593
vn 0.1672 0.8900 -0.4243
vn 0.3974 0.9056 0.1485
vt 1.000000 0.500000
vt 0.414576 0.453154
vt 0.919706 0.419706
vt 0.510673 0.305371
vt 0.875000 0.500000
vt 0.750000 0.490000
vt 0.146202 0.451675
vt 0.990000 0.250000
vt 0.467498 0.134249
vt 0.750000 0.500000
vt 0.919706 0.080294
vt 0.314730 0.039993
vt 0.625000 0.500000
vt 0.750000 0.010000
vt 0.225998 0.031657
vt 0.500000 0.500000
vt 0.580294 0.080294
vt 0.080587 0.120374
vt 0.375000 0.500000
vt 0.510000 0.250000
vt 0.043912 0.299084
vt 0.250000 0.500000
vt 0.580294 0.419706
vt 0.125000 0.500000
vt 0.359387 0.404746
vt 0.437822 0.287360
vt 0.470587 0.294979
vt 0.381871 0.429423
vt 0.409228 0.143608
vt 0.435977 0.135033
vt 0.283230 0.059418
vt 0.295981 0.043944
vt 0.216770 0.059418
vt 0.216834 0.041321
vt 0.090772 0.143608
vt 0.079141 0.130671
vt 0.062178 0.287360
vt 0.046498 0.293012
vt 0.140613 0.404746
vt 0.137398 0.428954
s 1
f 82/101/82 90/102/90 83/103/83
f 90/102/90 91/104/91 83/105/83
f 82/106/82 97/107/97 90/102/90
f 91/104/91 84/108/84 83/105/83
f 91/104/91 92/109/92 84/110/84
f 92/109/92 85/111/85 84/110/84
f 92/109/92 93/112/93 85/113/85
f 93/112/93 86/114/86 85/113/85
f 93/112/93 94/115/94 86/116/86
f 86/116/86 94/115/94 87/117/87
f 87/117/87 94/115/94 95/118/95
f 87/119/87 95/118/95 88/120/88
f 88/120/88 95/118/95 96/121/96
f 88/122/88 96/121/96 89/123/89
f 89/123/89 96/121/96 97/107/97
f 82/106/82 89/124/89 97/107/97
f 98/125/98 100/126/100 101/127/101 99/128/99
f 100/126/100 102/129/102 103/130/103 101/127/101
f 102/129/102 104/131/104 105/132/105 103/130/103
f 104/131/104 106/133/106 107/134/107 105/132/105
f 106/133/106 108/135/108 109/136/109 107/134/107
f 108/135/108 110/137/110 111/138/111 109/136/109
f 110/137/110 112/139/112 113/140/113 111/138/111
f 112/139/112 98/125/98 99/128/99 113/140/113
f 90/102/90 97/107/97 113/140/113 99/128/99
f 91/104/91 90/102/90 99/128/99 101/127/101
f 112/139/112 110/137/110 108/135/108 106/133/106 104/131/104 102/129/102 100/126/100 98/125/98
f 92/109/92 91/104/91 101/127/101 103/130/103
f 93/112/93 92/109/92 103/130/103 105/132/105
f 94/115/94 93/112/93 105/132/105 107/134/107
f 95/118/95 94/115/94 107/134/107 109/136/109
f 96/121/96 95/118/95 109/136/109 111/138/111
f 97/107/97 96/121/96 111/138/111 113/140/113
o Cylinder.002
v 0.202882 0.746697 0.117134
v 0.339494 0.693606 -0.013300
v 0.488037 0.565432 -0.014237
v 0.561498 0.437258 0.114874
v 0.516843 0.384167 0.298400
v 0.380232 0.437258 0.428834
v 0.231689 0.565432 0.429771
v 0.158228 0.693606 0.300660
v 0.623348 1.089735 0.197713
v 0.778273 0.973825 0.159938
v 0.876454 0.838268 0.260998
v 0.861696 0.761911 0.439093
v 0.811114 0.761911 0.526704
v 0.664258 0.838268 0.628533
v 0.527647 0.973825 0.594035
v 0.482899 1.089735 0.440978
v 0.764840 1.121262 0.357837
v 0.708590 1.136967 0.275482
v 0.838501 1.066230 0.340318
v 0.831728 1.045568 0.246336
v 0.887386 0.998836 0.390433
v 0.911084 0.935817 0.327802
v 0.879799 0.959367 0.482512
v 0.898962 0.872933 0.474416
v 0.857767 0.959367 0.520672
v 0.860337 0.872933 0.541316
v 0.781817 0.998836 0.573282
v 0.739427 0.935817 0.625121
v 0.713974 1.066230 0.556004
v 0.629197 1.045568 0.597130
v 0.692316 1.121262 0.483452
v 0.592870 1.136967 0.475916
vn -0.5895 0.7326 -0.3403
vn -0.0624 0.4878 -0.8707
vn 0.5123 -0.0173 -0.8586
vn 0.7868 -0.5125 -0.3440
vn 0.6024 -0.7184 0.3478
vn 0.0955 -0.5125 0.8534
vn -0.4875 -0.0173 0.8730
vn -0.7853 0.4878 0.3813
vn -0.2109 0.6952 -0.6872
vn 0.4245 0.2304 -0.8756
vn 0.8152 -0.3011 -0.4948
vn 0.7921 -0.5968 0.1283
vn 0.5071 -0.5968 0.6218
vn -0.0209 -0.3011 0.9533
vn -0.5461 0.2304 0.8054
vn -0.7006 0.6952 0.1610
vn 0.4511 0.8900 0.0674
vn 0.0701 0.9056 -0.4184
vn 0.7147 0.6993 -0.0123
vn 0.6438 0.4793 -0.5965
vn 0.8643 0.4866 0.1270
vn 0.9641 0.0105 -0.2654
vn 0.8532 0.3835 0.3535
vn 0.9395 -0.2350 0.2492
vn 0.7328 0.3835 0.5622
vn 0.6856 -0.2350 0.6890
vn 0.5422 0.4866 0.6850
vn 0.2522 0.0105 0.9676
vn 0.3467 0.6993 0.6251
vn -0.1946 0.4793 0.8558
vn 0.2839 0.8900 0.3569
vn -0.3273 0.9056 0.2699
vt 1.000000 0.500000
vt 0.414576 0.453154
vt 0.919706 0.419706
vt 0.510673 0.305371
vt 0.875000 0.500000
vt 0.750000 0.490000
vt 0.146202 0.451675
vt 0.990000 0.250000
vt 0.467498 0.134249
vt 0.750000 0.500000
vt 0.919706 0.080294
vt 0.314730 0.039993
vt 0.625000 0.500000
vt 0.750000 0.010000
vt 0.225998 0.031657
vt 0.500000 0.500000
vt 0.580294 0.080294
vt 0.080587 0.120374
vt 0.375000 0.500000
vt 0.510000 0.250000
vt 0.043912 0.299084
vt 0.250000 0.500000
vt 0.580294 0.419706
vt 0.125000 0.500000
vt 0.359387 0.404746
vt 0.437822 0.287360
vt 0.470587 0.294979
vt 0.381871 0.429423
vt 0.409228 0.143608
vt 0.435977 0.135033
vt 0.283230 0.059418
vt 0.295981 0.043944
vt 0.216770 0.059418
vt 0.216834 0.041321
vt 0.090772 0.143608
vt 0.079141 0.130671
vt 0.062178 0.287360
vt 0.046498 0.293012
vt 0.140613 0.404746
vt 0.137398 0.428954
s 1
f 114/141/114 122/142/122 115/143/115
f 122/142/122 123/144/123 115/145/115
f 114/146/114 129/147/129 122/142/122
f 123/144/123 116/148/116 115/145/115
f 123/144/123 124/149/124 116/150/116
f 124/149/124 117/151/117 116/150/116
f 124/149/124 125/152/125 117/153/117
f 125/152/125 118/154/118 117/153/117
f 125/152/125 126/155/126 118/156/118
f 118/156/118 126/155/126 119/157/119
f 119/157/119 126/155/126 127/158/127
f 119/159/119 127/158/127 120/160/120
f 120/160/120 127/158/127 128/161/128
f 120/162/120 128/161/128 121/163/121
f 121/163/121 128/161/128 129/147/129
f 114/146/114 121/164/121 129/147/129
f 130/165/130 132/166/132 133/167/133 131/168/131
f 132/166/132 134/169/134 135/170/135 133/167/133
f 134/169/134 136/171/136 137/172/137 135/170/135
f 136/171/136 138/173/138 139/174/139 137/172/137
f 138/173/138 140/175/140 141/176/141 139/174/139
f 140/175/140 142/177/142 143/178/143 141/176/141
f 142/177/142 144/179/144 145/180/145 143/178/143
f 144/179/144 130/165/130 131/168/131 145/180/145
f 122/142/122 129/147/129 145/180/145 131/168/131
f 123/144/123 122/142/122 131/168/131 133/167/133
f 144/179/144 142/177/142 140/175/140 138/173/138 136/171/136 134/169/134 132/166/132 130/165/130
f 124/149/124 123/144/123 133/167/133 135/170/135
f 125/152/125 124/149/124 135/170/135 137/172/137
f 126/155/126 125/152/125 137/172/137 139/174/139
f 127/158/127 126/155/126 139/174/139 141/176/141
f 128/161/128 127/158/127 141/176/141 143/178/143
f 129/147/129 128/161/128 143/178/143 145/180/145
o Cylinder.004
v -0.202882 0.746697 0.117134
v -0.158228 0.693606 0.300660
v -0.231689 0.565432 0.429771
v -0.380232 0.437258 0.428834
v -0.516843 0.384167 0.298400
v -0.561498 0.437258 0.114874
v -0.488037 0.565432 -0.014237
v -0.339494 0.693606 -0.013300
v -0.482899 1.089735 0.440978
v -0.527647 0.973825 0.594035
v -0.664258 0.838268 0.628533
v -0.811114 0.761911 0.526704
v -0.861696 0.761911 0.439093
v -0.876454 0.838268 0.260998
v -0.778273 0.973825 0.159938
v -0.623348 1.089735 0.197713
v -0.692316 1.121262 0.483452
v -0.592870 1.136967 0.475916
v -0.713974 1.066230 0.556004
v -0.629197 1.045568 0.597130
v -0.781817 0.998836 0.573282
v -0.739427 0.935817 0.625121
v -0.857767 0.959367 0.520672
v -0.860337 0.872933 0.541316
v -0.879799 0.959367 0.482512
v -0.898962 0.872933 0.474416
v -0.887386 0.998836 0.390433
v -0.911084 0.935817 0.327802
v -0.838501 1.066230 0.340318
v -0.831728 1.045568 0.246336
v -0.764840 1.121262 0.357837
v -0.708590 1.136967 0.275482
vn 0.5895 0.7326 -0.3403
vn 0.7853 0.4878 0.3813
vn 0.4875 -0.0173 0.8730
vn -0.0955 -0.5125 0.8534
vn -0.6024 -0.7184 0.3478
vn -0.7868 -0.5125 -0.3440
vn -0.5123 -0.0173 -0.8586
vn 0.0624 0.4878 -0.8707
vn 0.7006 0.6952 0.1610
vn 0.5461 0.2304 0.8054
vn 0.0209 -0.3011 0.9533
vn -0.5071 -0.5968 0.6218
vn -0.7921 -0.5968 0.1283
vn -0.8152 -0.3011 -0.4948
vn -0.4245 0.2304 -0.8756
vn 0.2109 0.6952 -0.6872
vn -0.2839 0.8900 0.3569
vn 0.3273 0.9056 0.2699
vn -0.3467 0.6993 0.6251
vn 0.1946 0.4793 0.8558
vn -0.5422 0.4866 0.6850
vn -0.2522 0.0105 0.9676
vn -0.7328 0.3835 0.5622
vn -0.6856 -0.2350 0.6890
vn -0.8532 0.3835 0.3535
vn -0.9395 -0.2350 0.2492
vn -0.8643 0.4866 0.1270
vn -0.9641 0.0105 -0.2654
vn -0.7147 0.6993 -0.0123
vn -0.6438 0.4793 -0.5965
vn -0.4511 0.8900 0.0674
vn -0.0701 0.9056 -0.4184
vt 1.000000 0.500000
vt 0.414576 0.453154
vt 0.919706 0.419706
vt 0.510673 0.305371
vt 0.875000 0.500000
vt 0.750000 0.490000
vt 0.146202 0.451675
vt 0.990000 0.250000
vt 0.467498 0.134249
vt 0.750000 0.500000
vt 0.919706 0.080294
vt 0.314730 0.039993
vt 0.625000 0.500000
vt 0.750000 0.010000
vt 0.225998 0.031657
vt 0.500000 0.500000
vt 0.580294 0.080294
vt 0.080587 0.120374
vt 0.375000 0.500000
vt 0.510000 0.250000
vt 0.043912 0.299084
vt 0.250000 0.500000
vt 0.580294 0.419706
vt 0.125000 0.500000
vt 0.359387 0.404746
vt 0.437822 0.287360
vt 0.470587 0.294979
vt 0.381871 0.429423
vt 0.409228 0.143608
vt 0.435977 0.135033
vt 0.283230 0.059418
vt 0.295981 0.043944
vt 0.216770 0.059418
vt 0.216834 0.041321
vt 0.090772 0.143608
vt 0.079141 0.130671
vt 0.062178 0.287360
vt 0.046498 0.293012
vt 0.140613 0.404746
vt 0.137398 0.428954
s 1
f 146/181/146 154/182/154 147/183/147
f 154/182/154 155/184/155 147/185/147
f 146/186/146 161/187/161 154/182/154
f 155/184/155 148/188/148 147/185/147
f 155/184/155 156/189/156 148/190/148
f 156/189/156 149/191/149 148/190/148
f 156/189/156 157/192/157 149/193/149
f 157/192/157 150/194/150 149/193/149
f 157/192/157 158/195/158 150/196/150
f 150/196/150 158/195/158 151/197/151
f 151/197/151 158/195/158 159/198/159
f 151/199/151 159/198/159 152/200/152
f 152/200/152 159/198/159 160/201/160
f 152/202/152 160/201/160 153/203/153
f 153/203/153 160/201/160 161/187/161
f 146/186/146 153/204/153 161/187/161
f 162/205/162 164/206/164 165/207/165 163/208/163
f 164/206/164 166/209/166 167/210/167 165/207/165
f 166/209/166 168/211/168 169/212/169 167/210/167
f 168/211/168 170/213/170 171/214/171 169/212/169
f 170/213/170 172/215/172 173/216/173 171/214/171
f 172/215/172 174/217/174 175/218/175 173/216/173
f 174/217/174 176/219/176 177/220/177 175/218/175
f 176/219/176 162/205/162 163/208/163 177/220/177
f 154/182/154 161/187/161 177/220/177 163/208/163
f 155/184/155 154/182/154 163/208/163 165/207/165
f 176/219/176 174/217/174 172/215/172 170/213/170 168/211/168 166/209/166 164/206/164 162/205/162
f 156/189/156 155/184/155 165/207/165 167/210/167
f 157/192/157 156/189/156 167/210/167 169/212/169
f 158/195/158 157/192/157 169/212/169 171/214/171
f 159/198/159 158/195/158 171/214/171 173/216/173
f 160/201/160 159/198/159 173/216/173 175/218/175
f 161/187/161 160/201/160 175/218/175 177/220/177
