<svg width="108" height="108" viewBox="0 0 108 108" fill="none" xmlns="http://www.w3.org/2000/svg">
<path fill-rule="evenodd" clip-rule="evenodd" d="M48.864 41.29C48.8311 41.2654 44.0836 47.4648 44.1847 47.6054C45.1756 48.9842 48.1952 54.0544 48.2948 54.0541C50.8411 54.0468 59.3874 53.9999 59.4583 53.8773C60.7987 51.5461 61.8356 49.8172 63.4713 47.1559C63.4781 47.1448 59.0412 41.457 59.0785 41.3753C59.1158 41.2936 48.9336 41.342 48.864 41.29Z" fill="#005320"/>
<path fill-rule="evenodd" clip-rule="evenodd" d="M65.4114 65.768C70.0479 65.4255 73.8203 64.8 77.1879 62.9946C77.4292 62.8653 73.4062 51.0978 73.3652 51.1106C73.3242 51.1235 64.3924 47.6673 64.4602 47.6239C64.5286 47.5805 60.5616 54.3962 60.4845 54.4945C60.4074 54.5926 65.3722 65.7709 65.4114 65.768Z" fill="#005320"/>
<path fill-rule="evenodd" clip-rule="evenodd" d="M78.3083 63.0408C78.3257 63.0047 78.8684 62.5761 79.7288 62.0253C79.7462 62.0139 78.5899 54.866 78.6975 54.5193C78.8044 54.1726 75.1278 46.5186 75.2067 46.5036C75.2857 46.4886 74.3202 50.2198 74.258 50.3647C74.1965 50.5095 78.2679 63.1233 78.3083 63.0408Z" fill="#005320"/>
<path fill-rule="evenodd" clip-rule="evenodd" d="M30.0577 62.407C29.2953 61.987 29.0124 61.9481 28.5007 61.6399C28.4352 61.6005 33.1529 46.692 32.953 46.6366C32.7531 46.5811 33.5399 50.5127 33.464 50.702C32.8288 52.2872 30.0698 62.4137 30.0577 62.407Z" fill="#005320"/>
<path fill-rule="evenodd" clip-rule="evenodd" d="M35.1526 76.6716C35.1724 76.801 34.7328 77.5905 34.7209 77.6906C34.7089 77.7907 32.7348 75.2896 32.7419 75.4109C32.749 75.5315 29.0694 67.1722 29.0686 66.7709C29.0678 66.3696 28.4954 63.1555 28.5 63.1542C28.5046 63.1529 29.6797 63.6768 29.7339 63.6766C29.7882 63.6765 35.141 76.5964 35.1526 76.6716Z" fill="#005320"/>
<path fill-rule="evenodd" clip-rule="evenodd" d="M75.5717 75.4201C75.5816 75.5028 74.5446 76.4938 73.5356 77.4363C73.4729 77.4947 72.7909 76.265 72.7548 76.3042C72.7188 76.344 78.3108 63.6587 78.3692 63.7251C78.4277 63.7915 79.6978 62.8187 79.6891 62.8642C79.4678 64.0547 78.585 68.9461 78.5427 68.8856C78.5004 68.8251 75.5598 75.3219 75.5717 75.4201Z" fill="#005320"/>
<path fill-rule="evenodd" clip-rule="evenodd" d="M42.74 65.1592C39.4288 65.1912 36.1932 65.2502 36.0575 65.1843C33.4058 63.8959 31.1274 62.8325 31.0165 62.8305C30.9057 62.8285 34.0637 51.9133 34.1413 51.876C36.1296 50.9219 42.9043 48.4054 42.9621 48.4933C44.5845 50.9611 47.1688 54.854 47.0203 55.1954C44.5971 60.768 42.8359 65.1583 42.74 65.1592Z" fill="#005320"/>
<path fill-rule="evenodd" clip-rule="evenodd" d="M58.8397 73.9405C58.65 73.91 51.4754 73.8684 48.8719 73.8646C48.6614 73.8646 44.1339 65.8951 44.183 65.768C46.1151 60.7702 48.2636 55.2311 48.2947 55.2035C48.3258 55.1759 59.2835 55.5524 59.4048 55.2035C59.5266 54.8547 64.0798 65.7112 64.0202 65.8057C62.451 68.2815 59.0212 73.9697 58.8397 73.9405Z" fill="#005320"/>
<path fill-rule="evenodd" clip-rule="evenodd" d="M31.0136 64.1152C31.2067 64.1937 35.5692 66.0555 35.5594 66.2685C35.5497 66.4816 42.9949 66.3767 42.9663 66.2685C42.9378 66.1604 48.1418 74.4706 48.0744 74.5956C47.071 76.4525 45.4344 79.3278 45.4939 79.3316C45.5535 79.3353 35.9766 76.2039 35.9467 76.1299C34.2483 71.9236 30.709 63.9914 31.0136 64.1152Z" fill="#005320"/>
<path fill-rule="evenodd" clip-rule="evenodd" d="M60.0388 74.5896C60.809 75.8554 61.5495 77.1827 62.4609 79.0589C62.4963 79.1323 68.3675 77.3735 71.7718 75.9063C71.8153 75.8871 77.0381 64.3902 76.8976 64.4698C74.2381 65.9764 67.9603 66.4261 64.6977 66.8056C64.5858 66.8186 59.9735 74.4827 60.0388 74.5896Z" fill="#005320"/>
<path fill-rule="evenodd" clip-rule="evenodd" d="M72.9594 78.1605C73.0526 78.0735 72.2842 77.1503 72.3041 77.0521C72.324 76.9545 62.451 80.2078 62.4473 80.2786C62.4442 80.3495 59.4502 84.8903 58.4772 86.2928C58.3883 86.4209 64.8277 85.7271 72.9594 78.1605Z" fill="#005320"/>
<path fill-rule="evenodd" clip-rule="evenodd" d="M35.1531 78.2172C35.0664 78.1202 35.7487 77.2213 35.7368 77.0907C35.725 76.9595 45.5667 80.2806 45.4727 80.2321C45.3787 80.183 47.0093 83.6526 48.2945 86.3059C48.3037 86.3246 46.0085 85.3286 45.9855 85.3809C45.9626 85.4325 38.7654 82.2426 35.1531 78.2172Z" fill="#005320"/>
<path fill-rule="evenodd" clip-rule="evenodd" d="M46.3073 79.9641C47.2707 81.7117 49.3252 86.2997 49.3419 86.3059C51.5316 87.121 54.365 87.369 57.2086 86.3059C57.4716 86.2077 61.4777 79.8988 61.4964 79.9424C61.5144 79.9865 59.2602 76.0699 58.8467 75.0528C58.7734 74.8719 48.7362 74.824 48.8791 74.9005C49.0219 74.9776 46.2578 79.8746 46.3073 79.9641Z" fill="#005320"/>
<path fill-rule="evenodd" clip-rule="evenodd" d="M67.7777 39.8703C69.9007 36.0238 74.8108 27.013 74.8655 26.9102C74.9351 26.7795 75.3137 26.3486 76.1449 26.6583C76.9761 26.9681 76.8934 27.6119 76.9003 27.6073C76.9059 27.6036 72.7779 38.1616 71.1422 42.3155C72.1693 43.2641 73.2317 44.4339 74.5391 45.988C74.587 46.0445 73.5463 49.902 73.4431 49.8617C68.8271 48.0568 64.9552 46.6317 64.9471 46.6209C62.6991 43.5387 61.6137 42.3112 60.4847 40.6959C60.4679 40.6718 63.309 37.811 63.4047 37.8502C65.1958 38.5838 66.5809 39.2013 67.7777 39.8703Z" fill="#005320"/>
<path fill-rule="evenodd" clip-rule="evenodd" d="M37.1441 42.5689C35.597 44.1137 33.5392 46.0888 33.4659 46.1505C33.5191 46.1481 34.0272 48.291 34.3842 50.3586C34.408 50.4961 40.0003 48.2373 42.9268 47.2938C43.0327 47.2596 46.3781 42.8542 47.9357 40.9826C48.0641 40.8283 45.3656 37.9608 45.2598 37.8498C45.1871 37.7735 42.22 39.0269 40.3449 39.9209C38.1637 35.9694 33.0445 26.7053 32.977 26.5485C32.9596 26.5084 32.2998 26.502 31.802 26.7284C30.9919 27.0969 31.0716 27.6736 31.0533 27.6924C31.0057 27.7414 35.5686 38.6323 37.1441 42.5689ZM33.4659 46.1505C33.4641 46.152 33.4635 46.1524 33.4642 46.1515C33.4647 46.1509 33.4652 46.1505 33.4659 46.1505Z" fill="#005320"/>
<path fill-rule="evenodd" clip-rule="evenodd" d="M52.1211 36.4661C52.2933 33.9624 53.2172 21.7006 53.2234 21.6395C53.2308 21.5716 53.5062 21.0315 54.1018 21.0015C54.6974 20.9715 54.9299 21.3882 54.9635 21.4715C54.9927 21.5438 55.6535 33.2899 55.8158 36.4595C58.2882 36.4572 60.4691 36.4607 60.2248 36.4799C59.6945 36.5217 62.5741 37.373 62.5045 37.4274C60.8533 38.7166 59.3072 40.3237 59.1648 40.3226C54.2989 40.2856 48.847 40.3886 48.7783 40.3172C47.4777 38.9682 46.0971 37.5832 46.1285 37.5707C46.3559 37.4795 48.865 36.4786 49.3574 36.4748C49.5085 36.4736 50.6403 36.4697 52.1211 36.4661Z" fill="#005320"/>
</svg>
